<svg width="125" height="28" viewBox="0 0 125 28" fill="none" xmlns="http://www.w3.org/2000/svg">
<path d="M14.3613 21H4.97656V19.6035L8.73633 15.8242C9.88216 14.6654 10.6374 13.8385 11.002 13.3438C11.3665 12.849 11.64 12.3672 11.8223 11.8984C12.0046 11.4297 12.0957 10.9251 12.0957 10.3848C12.0957 9.62305 11.8646 9.02083 11.4023 8.57812C10.9401 8.12891 10.2988 7.9043 9.47852 7.9043C8.88607 7.9043 8.32292 8.00195 7.78906 8.19727C7.26172 8.39258 6.67253 8.7474 6.02148 9.26172L5.16211 8.1582C6.47721 7.06445 7.90951 6.51758 9.45898 6.51758C10.8001 6.51758 11.8516 6.86263 12.6133 7.55273C13.375 8.23633 13.7559 9.15755 13.7559 10.3164C13.7559 11.2214 13.502 12.1165 12.9941 13.002C12.4863 13.8874 11.5358 15.0072 10.1426 16.3613L7.01758 19.418V19.4961H14.3613V21ZM36.8711 17.7188H34.752V21H33.1992V17.7188H26.2559V16.3027L33.0332 6.64453H34.752V16.2441H36.8711V17.7188ZM33.1992 16.2441V11.498C33.1992 10.5671 33.2318 9.51562 33.2969 8.34375H33.2188C32.9062 8.96875 32.6133 9.48633 32.3398 9.89648L27.877 16.2441H33.1992ZM47.7207 13.8418C47.7207 16.3092 47.3301 18.1517 46.5488 19.3691C45.7741 20.5866 44.5859 21.1953 42.9844 21.1953C41.4479 21.1953 40.2793 20.5736 39.4785 19.3301C38.6777 18.0801 38.2773 16.2507 38.2773 13.8418C38.2773 11.3548 38.6647 9.50911 39.4395 8.30469C40.2142 7.10026 41.3958 6.49805 42.9844 6.49805C44.5339 6.49805 45.709 7.1263 46.5098 8.38281C47.3171 9.63932 47.7207 11.459 47.7207 13.8418ZM39.918 13.8418C39.918 15.9186 40.1621 17.4323 40.6504 18.3828C41.1387 19.3268 41.9167 19.7988 42.9844 19.7988C44.0651 19.7988 44.8464 19.3203 45.3281 18.3633C45.8164 17.3997 46.0605 15.8926 46.0605 13.8418C46.0605 11.791 45.8164 10.2904 45.3281 9.33984C44.8464 8.38281 44.0651 7.9043 42.9844 7.9043C41.9167 7.9043 41.1387 8.3763 40.6504 9.32031C40.1621 10.2578 39.918 11.765 39.918 13.8418ZM59.166 13.8418C59.166 16.3092 58.7754 18.1517 57.9941 19.3691C57.2194 20.5866 56.0312 21.1953 54.4297 21.1953C52.8932 21.1953 51.7246 20.5736 50.9238 19.3301C50.123 18.0801 49.7227 16.2507 49.7227 13.8418C49.7227 11.3548 50.11 9.50911 50.8848 8.30469C51.6595 7.10026 52.8411 6.49805 54.4297 6.49805C55.9792 6.49805 57.1543 7.1263 57.9551 8.38281C58.7624 9.63932 59.166 11.459 59.166 13.8418ZM51.3633 13.8418C51.3633 15.9186 51.6074 17.4323 52.0957 18.3828C52.584 19.3268 53.362 19.7988 54.4297 19.7988C55.5104 19.7988 56.2917 19.3203 56.7734 18.3633C57.2617 17.3997 57.5059 15.8926 57.5059 13.8418C57.5059 11.791 57.2617 10.2904 56.7734 9.33984C56.2917 8.38281 55.5104 7.9043 54.4297 7.9043C53.362 7.9043 52.584 8.3763 52.0957 9.32031C51.6074 10.2578 51.3633 11.765 51.3633 13.8418ZM75.8066 13.8418C75.8066 16.3092 75.416 18.1517 74.6348 19.3691C73.86 20.5866 72.6719 21.1953 71.0703 21.1953C69.5339 21.1953 68.3652 20.5736 67.5645 19.3301C66.7637 18.0801 66.3633 16.2507 66.3633 13.8418C66.3633 11.3548 66.7507 9.50911 67.5254 8.30469C68.3001 7.10026 69.4818 6.49805 71.0703 6.49805C72.6198 6.49805 73.7949 7.1263 74.5957 8.38281C75.403 9.63932 75.8066 11.459 75.8066 13.8418ZM68.0039 13.8418C68.0039 15.9186 68.248 17.4323 68.7363 18.3828C69.2246 19.3268 70.0026 19.7988 71.0703 19.7988C72.151 19.7988 72.9323 19.3203 73.4141 18.3633C73.9023 17.3997 74.1465 15.8926 74.1465 13.8418C74.1465 11.791 73.9023 10.2904 73.4141 9.33984C72.9323 8.38281 72.151 7.9043 71.0703 7.9043C70.0026 7.9043 69.2246 8.3763 68.7363 9.32031C68.248 10.2578 68.0039 11.765 68.0039 13.8418ZM87.252 13.8418C87.252 16.3092 86.8613 18.1517 86.0801 19.3691C85.3053 20.5866 84.1172 21.1953 82.5156 21.1953C80.9792 21.1953 79.8105 20.5736 79.0098 19.3301C78.209 18.0801 77.8086 16.2507 77.8086 13.8418C77.8086 11.3548 78.196 9.50911 78.9707 8.30469C79.7454 7.10026 80.9271 6.49805 82.5156 6.49805C84.0651 6.49805 85.2402 7.1263 86.041 8.38281C86.8483 9.63932 87.252 11.459 87.252 13.8418ZM79.4492 13.8418C79.4492 15.9186 79.6934 17.4323 80.1816 18.3828C80.6699 19.3268 81.4479 19.7988 82.5156 19.7988C83.5964 19.7988 84.3776 19.3203 84.8594 18.3633C85.3477 17.3997 85.5918 15.8926 85.5918 13.8418C85.5918 11.791 85.3477 10.2904 84.8594 9.33984C84.3776 8.38281 83.5964 7.9043 82.5156 7.9043C81.4479 7.9043 80.6699 8.3763 80.1816 9.32031C79.6934 10.2578 79.4492 11.765 79.4492 13.8418ZM98.6973 13.8418C98.6973 16.3092 98.3066 18.1517 97.5254 19.3691C96.7507 20.5866 95.5625 21.1953 93.9609 21.1953C92.4245 21.1953 91.2559 20.5736 90.4551 19.3301C89.6543 18.0801 89.2539 16.2507 89.2539 13.8418C89.2539 11.3548 89.6413 9.50911 90.416 8.30469C91.1908 7.10026 92.3724 6.49805 93.9609 6.49805C95.5104 6.49805 96.6855 7.1263 97.4863 8.38281C98.2936 9.63932 98.6973 11.459 98.6973 13.8418ZM90.8945 13.8418C90.8945 15.9186 91.1387 17.4323 91.627 18.3828C92.1152 19.3268 92.8932 19.7988 93.9609 19.7988C95.0417 19.7988 95.8229 19.3203 96.3047 18.3633C96.793 17.3997 97.0371 15.8926 97.0371 13.8418C97.0371 11.791 96.793 10.2904 96.3047 9.33984C95.8229 8.38281 95.0417 7.9043 93.9609 7.9043C92.8932 7.9043 92.1152 8.3763 91.627 9.32031C91.1387 10.2578 90.8945 11.765 90.8945 13.8418ZM106.838 21V18.28H105.098V16.98H106.838V15.2H105.098V13.68H106.838V6.72H110.598C112.345 6.72 113.638 7.07333 114.478 7.78C115.332 8.48667 115.758 9.51333 115.758 10.86C115.758 12.22 115.298 13.2867 114.378 14.06C113.458 14.82 112.105 15.2 110.318 15.2H108.638V16.98H111.938V18.28H108.638V21H106.838ZM108.638 13.68H110.058C111.272 13.68 112.212 13.48 112.878 13.08C113.558 12.68 113.898 11.96 113.898 10.92C113.898 10.0133 113.618 9.34 113.058 8.9C112.498 8.46 111.625 8.24 110.438 8.24H108.638V13.68Z" fill="#48494D" fill-opacity="0.5"/>
<path d="M1 18.5L124 7" stroke="#A3A4A6"/>
</svg>
